<?xml version="1.0" encoding="UTF-8"?>
<svg width="129px" height="45px" viewBox="0 0 129 45" version="1.1" xmlns="http://www.w3.org/2000/svg" xmlns:xlink="http://www.w3.org/1999/xlink">
    <!-- Generator: Sketch 63.1 (92452) - https://sketch.com -->
    <title>Logo</title>
    <desc>Created with Sketch.</desc>
    <g id="Page-2" stroke="none" stroke-width="1" fill="none" fill-rule="evenodd">
        <g id="COP_add-nomination2" transform="translate(-30.000000, -9.000000)">
            <g id="Header">
                <g id="Logo" transform="translate(30.000000, 9.000000)">
                    <path d="M64,15 L67.8448862,15 C70.3236232,15 71.0800553,15.2586582 71.8992133,15.7318667 C73.264831,16.5062078 74,17.8839033 74,19.6057504 C74,21.5851666 73.07559,23.2209758 71.478737,23.9958615 C70.8068254,24.3187759 70.1769084,24.4908517 68.5587923,24.4908517 L66.9412077,24.4908517 L66.9412077,30 L64,30 L64,15 Z M66.9412077,17.431932 L66.9412077,22.0376824 L68.4748033,22.0376824 C69.6724431,22.0376824 70.0296619,21.8868438 70.4283436,21.2627968 C70.680842,20.8538445 70.7855624,20.3800915 70.7855624,19.6700065 C70.7855624,18.2710738 70.0503934,17.431932 68.8107591,17.431932 L66.9412077,17.431932 Z" id="Fill-110" fill="#243274"></path>
                    <polygon id="Fill-112" fill="#243274" points="76 30 79 30 79 15 76 15"></polygon>
                    <polygon id="Fill-113" fill="#243274" points="83 15 85.9186677 15 85.9186677 27.4961774 91 27.4961774 90.4903176 30 83 30"></polygon>
                    <polygon id="Fill-114" fill="#243274" points="93 15 95.9186677 15 95.9186677 27.4961774 101 27.4961774 100.489801 30 93 30"></polygon>
                    <g id="Group-121" transform="translate(50.000000, 14.000000)">
                        <path d="M57.9243151,0.665653333 L61.1535753,0.665653333 L65.8367603,15.3568533 L62.6286027,15.3568533 L61.5810411,11.8789867 L57.218726,11.8789867 L56.1706233,15.3568533 L53.0485,15.3568533 L57.9243151,0.665653333 Z M57.9454178,9.43418667 L60.8538082,9.43418667 C60.8538082,9.43418667 60.3619521,7.89552 60.0410822,6.48325333 C59.8917397,5.80858667 59.4426301,3.89072 59.4426301,3.89072 C59.4426301,3.89072 59.0146233,5.61872 58.7370411,6.71525333 C58.4589178,7.76912 58.2662877,8.46458667 57.9454178,9.43418667 L57.9454178,9.43418667 Z" id="Fill-115" fill="#243274"></path>
                        <path d="M67.6966151,0.68672 L73.2352726,0.70752 C75.8655397,0.70752 77.5981288,2.43605333 77.5981288,5.00778667 C77.5981288,7.19978667 76.1220192,9.01258667 74.2828342,9.05472 C74.5826014,9.28672 74.7108411,9.41312 74.9034712,9.66592 C75.7589438,10.7197867 78.4747041,15.35712 78.4747041,15.35712 L74.9462178,15.35712 C74.3688685,14.38752 74.1334918,13.9869867 73.5561425,12.9544533 C72.080574,10.3192533 71.6103616,9.62378667 71.0968616,9.37098667 C70.9469781,9.30752 70.8614849,9.26538667 70.6261082,9.24458667 L70.6261082,15.35712 L67.6966151,15.35712 L67.6966151,0.68672 Z M70.6477521,3.06858667 L70.6261082,7.03125333 L71.6314644,7.03125333 C72.9144027,7.03125333 73.4701082,6.90485333 73.8770123,6.54645333 C74.2400877,6.20938667 74.4543616,5.68192 74.4543616,5.07072 C74.4543616,4.16458667 74.0907452,3.55338667 73.3851562,3.27925333 C73.0426425,3.15285333 72.4225466,3.06858667 71.6953137,3.06858667 L70.6477521,3.06858667 Z" id="Fill-117" fill="#243274"></path>
                        <path d="M2.88766644,8.43941333 L2.88766644,6.05914667 L3.06027603,6.08048 C3.59920753,6.12314667 4.09539247,6.14394667 4.37568014,6.14394667 C5.97137192,6.14394667 6.76894726,5.59141333 6.76894726,4.46501333 C6.76894726,3.55141333 6.18672808,2.87088 4.93625548,2.87088 C3.49152945,2.87088 2.3920226,3.53008 1.74487192,4.06128 L0.235755479,2.25434667 C0.904008904,1.74448 1.44294041,1.44688 2.17612534,1.12794667 C3.23288562,0.70288 4.28910479,0.46928 5.32422123,0.46928 C8.01996096,0.46928 9.98197466,2.04208 9.98197466,4.16741333 C9.98197466,5.31514667 9.46468699,6.31408 8.55889247,6.90928 C8.27860479,7.07941333 8.14928288,7.14288 7.76077603,7.29168 C9.37811164,7.82288 10.3271938,9.03461333 10.3271938,10.52208 C10.3271938,13.4554133 7.20020068,15.4959467 2.73670068,15.4959467 C2.06844726,15.4959467 1.76651575,15.4959467 0.947296575,15.38928 L0.256858219,13.4127467 C0.92565274,13.5407467 1.20594041,13.5615467 1.89583767,13.5615467 C4.89296781,13.5615467 6.94155685,12.22288 6.94155685,10.28848 C6.94155685,9.58714667 6.57523493,8.94981333 5.99301575,8.67354667 C5.58340616,8.50341333 4.93625548,8.41808 3.98717329,8.41808 C3.70688562,8.41808 3.40549521,8.41808 3.1035637,8.43941333 L2.88766644,8.43941333 Z" id="Fill-119" fill="#EC9036"></path>
                    </g>
                    <polygon id="Fill-122" fill="#EC9036" points="23 26 28 26 28 19 23 19"></polygon>
                    <g id="Group-129" fill="#243274">
                        <path d="M20.3908878,41.7077892 C9.73966829,41.7077892 1.10493659,32.9848373 1.10493659,22.222247 C1.10493659,11.4596566 9.73966829,2.73562048 20.3908878,2.73562048 C29.4130341,2.73562048 36.9821073,8.99658434 39.089278,17.4517048 L43.6379122,17.4517048 C41.4427415,7.46604217 32.6255707,-0.000162650602 22.0816683,-0.000162650602 C9.8861561,-0.000162650602 0.000107317073,9.98875301 0.000107317073,22.3100783 C0.000107317073,34.6335723 9.8861561,44.6214036 22.0816683,44.6214036 C32.6405951,44.6214036 41.4668878,37.1329699 43.6454244,27.1250783 L39.0603024,27.1250783 C36.9091317,35.513512 29.3668878,41.7077892 20.3908878,41.7077892" id="Fill-123"></path>
                        <path d="M30.6994439,27.1251867 C28.7350049,32.5322349 23.6004195,36.3913916 17.5681268,36.3913916 C9.84022439,36.3913916 3.57451707,30.0615723 3.57451707,22.2516325 C3.57451707,14.4416928 9.84022439,8.11241566 17.5681268,8.11241566 C23.6251024,8.11241566 28.780078,12.0024759 30.7284195,17.4431386 L35.2877854,17.4431386 C33.2412488,10.530488 26.9031024,5.49211446 19.3962732,5.49211446 C10.2335415,5.49211446 2.80559024,12.9968133 2.80559024,22.2548855 C2.80559024,31.5124157 10.2335415,39.0165723 19.3962732,39.0165723 C26.881639,39.0165723 33.2042244,34.0063916 35.2690049,27.1251867 L30.6994439,27.1251867 Z" id="Fill-125"></path>
                        <path d="M22.2976439,27.1251867 C20.7447659,29.3833193 18.1616439,30.8618133 15.2340341,30.8618133 C10.4836439,30.8618133 6.63203415,26.9712108 6.63203415,22.1703072 C6.63203415,17.3721145 10.4836439,13.4798855 15.2340341,13.4798855 C18.2576927,13.4798855 20.9116439,15.0592229 22.4452049,17.4431386 L26.9289122,17.4431386 C25.154961,13.7200663 21.3875951,11.1485602 17.0246195,11.1485602 C10.9563756,11.1485602 6.03749756,16.1197048 6.03749756,22.2505482 C6.03749756,28.3824759 10.9563756,33.351994 17.0246195,33.351994 C21.3607659,33.351994 25.1061317,30.8124759 26.8918878,27.1251867 L22.2976439,27.1251867 Z" id="Fill-127"></path>
                    </g>
                    <polygon id="Fill-130" fill="#EC9036" points="39 26 44 26 44 19 39 19"></polygon>
                    <polygon id="Fill-131" fill="#EC9036" points="31 26 36 26 36 19 31 19"></polygon>
                    <path d="M66.7608474,37.4549931 L68.1333409,37.4549931 L68.1333409,39.1248769 C67.8552169,39.2625566 67.5034553,39.3322828 67.0871191,39.3322828 C66.4158831,39.3322828 65.74578,39.0882411 65.4574601,38.7384282 C65.1538462,38.3714792 64.9867452,37.7640339 64.9867452,37.029545 C64.9867452,36.4941895 65.0768098,36.0108332 65.2535403,35.591885 C65.5843435,34.8136695 66.3462105,34.6505811 66.926249,34.6505811 C67.4366149,34.6505811 67.8353914,34.769352 68.3990031,35.0884381 L68.4312904,35.106756 L68.8629206,34.609218 L68.8193044,34.5773094 C68.2879801,34.1944061 67.6444998,34 66.9064235,34 C66.1757109,34 65.5792455,34.1814063 65.0836071,34.5524916 C64.3545939,35.0854836 64,35.887335 64,37.0041363 C64,38.0110301 64.2758582,38.7307465 64.8689249,39.2678747 C65.4019486,39.7465038 66.1445565,40 67.01688,40 C67.7260677,40 68.4760394,39.8310026 68.9750765,39.5591885 L69,39.5450069 L69,36.787276 L66.572788,36.787276 L66.7608474,37.4549931 Z" id="Fill-132" fill="#243274"></path>
                    <polygon id="Fill-134" fill="#243274" points="73.7546613 35 73 35 73 40 75.8941889 40 76 39.4213455 73.7546613 39.4213455"></polygon>
                    <g id="Group-141" transform="translate(80.000000, 34.000000)" fill="#243274">
                        <path d="M2.65548372,0.505283333 C1.03264651,0.505283333 0.0243906977,1.6387 0.0243906977,3.46278333 C0.0243906977,4.43811667 0.298251163,5.22736667 0.815483721,5.74653333 C1.29206512,6.22486667 1.94141395,6.47803333 2.69292558,6.47803333 C3.37276279,6.47803333 3.87394884,6.31178333 4.3681814,5.9227 C5.04427442,5.3837 5.33311163,4.68253333 5.33311163,3.57828333 C5.33311163,2.65428333 5.14322791,1.97761667 4.73564651,1.44795 C4.40348372,1.01803333 3.77285581,0.505283333 2.65548372,0.505283333 M2.73090233,5.86028333 C2.19120465,5.86028333 1.61192558,5.60595 1.38353023,5.26878333 C1.13213488,4.89428333 0.975948837,4.14878333 0.975948837,3.3222 C0.975948837,2.62686667 1.07543721,2.15378333 1.29955349,1.78686667 C1.53597209,1.39836667 2.0681814,1.14811667 2.65548372,1.14811667 C3.2936,1.14811667 3.80815814,1.42228333 4.06650698,1.90061667 C4.27564651,2.28153333 4.37299535,2.8462 4.37299535,3.67745 C4.37299535,4.54195 4.24408837,5.02145 3.91192558,5.38778333 C3.63164651,5.70628333 3.24546047,5.86028333 2.73090233,5.86028333" id="Fill-135"></path>
                        <path d="M13.2030698,3.58709167 C13.0110465,3.45584167 12.861814,3.393425 12.5002326,3.30650833 C13.1554651,3.07434167 13.5272093,2.632175 13.5272093,2.07450833 C13.5272093,1.47425833 13.0682791,0.934091667 12.3863023,0.729925 C12.0402326,0.626675 11.6946977,0.604508333 10.442,0.604508333 L9.4594186,0.604508333 L9.4594186,6.37075833 L11.1806744,6.37075833 C12.1434651,6.37075833 12.3108837,6.35559167 12.6708605,6.237175 C13.326093,6.03475833 13.8021395,5.41700833 13.8021395,4.76834167 C13.8021395,4.29934167 13.5667907,3.83559167 13.2030698,3.58709167 L13.2030698,3.58709167 Z M12.4772326,2.58025833 C12.2969767,2.94309167 12.0605581,3.04225833 11.3796512,3.04225833 L10.2970465,3.04225833 L10.2970465,1.27184167 L11.1710465,1.27184167 C11.4962558,1.27184167 11.6941628,1.27884167 11.8738837,1.32025833 C12.3007209,1.40775833 12.576186,1.73909167 12.576186,2.164925 C12.576186,2.30959167 12.5430233,2.44900833 12.4772326,2.58025833 L12.4772326,2.58025833 Z M10.2970465,3.701425 L11.3983721,3.701425 C11.762093,3.701425 12.0076047,3.73234167 12.148814,3.75859167 C12.590093,3.844925 12.898186,4.23634167 12.898186,4.71059167 C12.898186,4.859925 12.8650233,5.01159167 12.7986977,5.15975833 C12.5975814,5.59959167 12.3290698,5.71975833 11.5502791,5.71975833 L10.2970465,5.71975833 L10.2970465,3.701425 Z" id="Fill-137"></path>
                        <path d="M20.313707,0.604333333 L19.2401953,0.604333333 L17.0338,6.37058333 L17.9174279,6.37058333 L18.542707,4.627 L20.9074279,4.627 L21.5225442,6.37058333 L22.5008465,6.37058333 L20.3249395,0.634083333 L20.313707,0.604333333 Z M19.7419163,1.37725 L20.014707,2.14141667 C20.1623349,2.56258333 20.5699163,3.69075 20.6731488,3.976 L18.7951721,3.976 C18.9144512,3.64291667 19.4295442,2.20325 19.462707,2.10116667 L19.7419163,1.37725 Z" id="Fill-139"></path>
                    </g>
                    <polygon id="Fill-142" fill="#243274" points="106.754544 39.4213455 106.754544 35 106 35 106 40 108.893739 40 109 39.4213455"></polygon>
                </g>
            </g>
        </g>
    </g>
</svg>